<?xml version="1.0" encoding="iso-8859-1"?>
<!-- Generator: Adobe Illustrator 15.0.0, SVG Export Plug-In . SVG Version: 6.00 Build 0)  -->
<!DOCTYPE svg PUBLIC "-//W3C//DTD SVG 1.1//EN" "http://www.w3.org/Graphics/SVG/1.1/DTD/svg11.dtd">
<svg version="1.1" id="Layer_1" xmlns="http://www.w3.org/2000/svg" xmlns:xlink="http://www.w3.org/1999/xlink" x="0px" y="0px"
	 width="600px" height="219px" viewBox="0 0 600 219" style="enable-background:new 0 0 600 219;" xml:space="preserve">
<g>
	<polygon style="fill:#C29A39;" points="456.819,45.298 438.677,89.481 475.09,89.426 457.087,45.298 	"/>
	<path style="fill:#C29A39;" d="M257.648,40.174l-17.12,0.024l0.047,30.975l17.119-0.024c10.326-0.012,20.649-2.476,20.627-15.521
		C278.304,42.586,267.975,40.159,257.648,40.174z"/>
	<path style="fill:#C29A39;" d="M3.189,3v151.192h593.828V3H3.189z M73.025,127.68c-30.57,0.05-49.496-25.464-49.532-49.645
		c-0.047-29.892,20.436-51.394,50.055-51.437c12.637-0.022,25.956,4.716,33.716,14.892l-10.854,8.307
		c-5.445-7.058-14.42-10.986-23.251-10.974c-21.6,0.037-35.842,17.313-35.808,39.193c0.033,20.241,13.508,37.474,35.926,37.438
		c11.006-0.019,19.42-4.923,25.117-12.95l11.018,8.272C106.563,114.718,95.035,127.649,73.025,127.68z M196.513,125.047
		l-9.682-23.757l-45.788,0.067l-9.474,23.789l-15.216,0.024l42.24-96.252l11.82-0.021l41.317,96.125L196.513,125.047z
		 M261.382,82.552l-20.79,0.037l0.067,42.391l-13.043,0.019l-0.149-96.19l33.832-0.056c24.592-0.034,30.863,14.767,30.88,26.851
		C292.201,67.7,285.971,82.521,261.382,82.552z M311.573,124.869l-0.146-96.19l13.041-0.019l0.147,96.19L311.573,124.869z
		 M372.843,124.771l-0.129-83.962l-30.979,0.052l-0.021-12.226l75.004-0.119l0.016,12.229l-30.978,0.043l0.129,83.965
		L372.843,124.771z M489.547,124.593l-9.682-23.757l-45.788,0.067l-9.473,23.788l-15.221,0.031l42.244-96.258l11.82-0.021
		l41.315,96.126L489.547,124.593z M520.647,124.544L520.5,28.353l13.042-0.019l0.129,83.965l44.158-0.074l0.019,12.238
		L520.647,124.544z"/>
	<polygon style="fill:#C29A39;" points="163.783,45.752 145.645,89.936 182.056,89.88 164.053,45.752 	"/>
</g>
<g>
	<path style="fill:#C19938;" d="M10.83,192.389v21.26H3.265v-50.16h7.565v21.296h9.128v-21.296h7.565v50.16h-7.565v-21.26H10.83z"/>
	<path style="fill:#C19938;" d="M43.565,202.116l-1.838,11.532h-7.879l8.528-50.16h10.407l8.406,50.16h-7.955l-1.771-11.532H43.565z
		 M47.54,174.978l-2.802,19.774h5.603L47.54,174.978z"/>
	<path style="fill:#C19938;" d="M76.05,163.445l10.041,33.736v-33.736h7.566v50.203h-8.126l-10.409-32.147v32.147h-7.566v-50.203
		H76.05z"/>
	<path style="fill:#C19938;" d="M124.201,201.638c0,3.308-1.162,6.138-3.483,8.488c-2.321,2.345-5.125,3.522-8.406,3.522h-11.89
		v-50.203h11.89c3.308,0,6.117,1.179,8.426,3.522c2.308,2.352,3.463,5.168,3.463,8.451V201.638z M107.987,206.161h4.563
		c1.202,0,2.216-0.437,3.043-1.301c0.827-0.866,1.241-1.891,1.241-3.062v-26.262c0-1.203-0.421-2.229-1.261-3.081
		c-0.841-0.854-1.848-1.283-3.023-1.283h-4.563V206.161z"/>
	<path style="fill:#C19938;" d="M138.41,213.648h-7.566v-50.203h10.857l7.052,36.062l6.768-36.062h10.432v50.203h-7.567v-31.546
		l-6.564,31.546h-6.085l-7.327-31.467V213.648z"/>
	<path style="fill:#C19938;" d="M181.993,202.116l-1.838,11.532h-7.879l8.528-50.16h10.407l8.407,50.16h-7.956l-1.771-11.532
		H181.993z M185.967,174.978l-2.802,19.774h5.604L185.967,174.978z"/>
	<path style="fill:#C19938;" d="M229.762,201.638c0,3.308-1.162,6.138-3.483,8.488c-2.322,2.345-5.125,3.522-8.407,3.522h-11.89
		v-50.203h11.89c3.308,0,6.118,1.179,8.427,3.522c2.308,2.352,3.463,5.168,3.463,8.451V201.638z M213.548,206.161h4.563
		c1.202,0,2.216-0.437,3.043-1.301c0.827-0.866,1.241-1.891,1.241-3.062v-26.262c0-1.203-0.42-2.229-1.261-3.081
		c-0.841-0.854-1.848-1.283-3.023-1.283h-4.563V206.161z"/>
	<path style="fill:#C19938;" d="M236.405,213.648v-50.203h21.538v7.61h-13.972v13.686h10.208v7.61h-10.208v13.687h13.972v7.61
		H236.405z"/>
	<path style="fill:#C19938;" d="M281.118,213.648h-7.565v-50.16h7.565V213.648z"/>
	<path style="fill:#C19938;" d="M296.379,163.445l10.043,33.736v-33.736h7.563v50.203h-8.126l-10.409-32.147v32.147h-7.566v-50.203
		H296.379z"/>
	<path style="fill:#C19938;" d="M341.606,214.286c-3.339,0-6.175-1.166-8.507-3.504c-2.338-2.332-3.504-5.155-3.504-8.463v-27.385
		c0-3.333,1.172-6.169,3.522-8.507c2.348-2.332,5.178-3.504,8.488-3.504c3.332,0,6.162,1.178,8.485,3.522
		c2.322,2.351,3.482,5.18,3.482,8.488v5.726h-7.844v-5.885c0-1.197-0.429-2.229-1.282-3.082c-0.854-0.853-1.884-1.282-3.081-1.282
		c-1.203,0-2.222,0.43-3.062,1.282c-0.841,0.854-1.265,1.885-1.265,3.082v27.464c0,1.196,0.424,2.222,1.265,3.062
		s1.859,1.258,3.062,1.258c1.197,0,2.228-0.417,3.081-1.258s1.282-1.866,1.282-3.062v-6.929h7.844v7.009
		c0,3.332-1.172,6.161-3.522,8.487C347.704,213.127,344.891,214.286,341.606,214.286z"/>
	<path style="fill:#C19938;" d="M367.616,202.116l-1.841,11.532h-7.877l8.527-50.16h10.408l8.405,50.16h-7.957l-1.768-11.532
		H367.616z M371.587,174.978l-2.798,19.774h5.604L371.587,174.978z"/>
	<path style="fill:#C19938;" d="M412.223,213.648h-20.619v-50.16h7.565v42.629h13.054V213.648z"/>
	<path style="fill:#C19938;" d="M424.988,213.648h-7.564v-50.16h7.564V213.648z"/>
	<path style="fill:#C19938;" d="M439.319,213.648h-7.564v-50.203h21.538v7.61h-13.974v13.686h10.209v7.61h-10.209V213.648z"/>
	<path style="fill:#C19938;" d="M470.466,162.844c3.336,0,6.171,1.179,8.506,3.523c2.336,2.351,3.505,5.179,3.505,8.487v27.385
		c0,3.332-1.176,6.168-3.523,8.507c-2.351,2.332-5.179,3.504-8.487,3.504c-3.336,0-6.164-1.178-8.487-3.522
		c-2.321-2.351-3.48-5.181-3.48-8.488v-27.385c0-3.333,1.172-6.168,3.522-8.506C464.365,164.016,467.183,162.844,470.466,162.844z
		 M474.591,174.695c0-1.203-0.424-2.223-1.262-3.062c-0.842-0.842-1.862-1.259-3.062-1.259s-2.231,0.417-3.084,1.259
		c-0.854,0.84-1.28,1.859-1.28,3.062v27.465c0,1.196,0.427,2.221,1.28,3.062c0.853,0.842,1.884,1.259,3.084,1.259
		s2.221-0.417,3.062-1.259c0.838-0.841,1.262-1.865,1.262-3.062V174.695z"/>
	<path style="fill:#C19938;" d="M501.091,163.488c4.217,0,7.311,1.16,9.286,3.479c1.737,2.031,2.602,4.861,2.602,8.488v7.285
		c0,3.553-1.35,6.555-4.044,9.009l5.604,21.898h-8.182l-4.584-18.896c-0.215,0-0.442,0-0.682,0h-4.363v18.896h-7.567v-50.16H501.091
		z M505.614,175.578c0-2.909-1.442-4.363-4.327-4.363h-4.56v16.049h4.56c1.203,0,2.223-0.423,3.063-1.276
		c0.84-0.859,1.264-1.884,1.264-3.087V175.578z"/>
	<path style="fill:#C19938;" d="M529.52,163.445l10.041,33.736v-33.736h7.567v50.203h-8.127l-10.408-32.147v32.147h-7.567v-50.203
		H529.52z"/>
	<path style="fill:#C19938;" d="M561.458,213.648h-7.567v-50.16h7.567V213.648z"/>
	<path style="fill:#C19938;" d="M577.5,202.116l-1.84,11.532h-7.878l8.528-50.16h10.408l8.405,50.16h-7.957l-1.768-11.532H577.5z
		 M581.472,174.978l-2.799,19.774h5.604L581.472,174.978z"/>
</g>
</svg>
